<?xml version="1.0" encoding="utf-8"?>
<!-- Generator: Adobe Illustrator 15.1.0, SVG Export Plug-In  -->
<!DOCTYPE svg PUBLIC "-//W3C//DTD SVG 1.1//EN" "http://www.w3.org/Graphics/SVG/1.1/DTD/svg11.dtd" [
	<!ENTITY ns_flows "http://ns.adobe.com/Flows/1.0/">
]>
<svg version="1.1"
	 xmlns="http://www.w3.org/2000/svg" xmlns:xlink="http://www.w3.org/1999/xlink" xmlns:a="http://ns.adobe.com/AdobeSVGViewerExtensions/3.0/"
	 x="0px" y="0px" width="726px" height="144px" viewBox="-14.025 -0.756 726 144"
	 overflow="visible" enable-background="new -14.025 -0.756 726 144" xml:space="preserve">
<defs>
</defs>
<polygon points="176.2,41.612 176.2,72.748 212.204,72.748 212.204,41.612 221.916,41.612 221.916,116.034 212.204,116.034 
	212.204,81.14 176.2,81.14 176.2,116.034 166.593,116.034 166.593,41.612 "/>
<path d="M284.028,88.874c0,19.759-13.693,28.375-26.608,28.375c-14.465,0-25.622-10.602-25.622-27.493
	c0-17.889,11.708-28.375,26.502-28.375C273.651,61.38,284.028,72.524,284.028,88.874 M241.629,89.425
	c0,11.703,6.735,20.534,16.228,20.534c9.28,0,16.236-8.721,16.236-20.759c0-9.056-4.529-20.535-16.007-20.535
	C246.598,68.666,241.629,79.264,241.629,89.425"/>
<path d="M293.69,77.057c0-5.524-0.11-10.052-0.44-14.465h8.505l0.436,8.612h0.331c2.986-5.083,7.951-9.828,16.786-9.828
	c7.285,0,12.813,4.418,15.13,10.708h0.22c1.656-2.978,3.757-5.298,5.964-6.955c3.202-2.431,6.731-3.753,11.813-3.753
	c7.07,0,17.562,4.638,17.562,23.187v31.475h-9.501V85.778c0-10.269-3.753-16.452-11.593-16.452c-5.524,0-9.832,4.088-11.483,8.832
	c-0.44,1.326-0.775,3.096-0.775,4.861v33.018h-9.492V84.012c0-8.502-3.757-14.686-11.157-14.686c-6.074,0-10.488,4.858-12.038,9.717
	c-0.55,1.437-0.771,3.092-0.771,4.748v32.246h-9.496V77.057z"/>
<path d="M388.872,90.58c0.224,13.402,8.789,18.922,18.7,18.922c7.096,0,11.377-1.236,15.088-2.816l1.694,7.095
	c-3.495,1.58-9.463,3.49-18.138,3.49c-16.782,0-26.804-11.145-26.804-27.592c0-16.443,9.683-29.396,25.567-29.396
	c17.794,0,22.525,15.656,22.525,25.677c0,2.029-0.225,3.604-0.34,4.62H388.872z M417.932,83.482
	c0.115-6.308-2.588-16.108-13.739-16.108c-10.022,0-14.419,9.238-15.208,16.108H417.932z"/>
<path fill="#046CB6" d="M449.776,92.157l-7.882,23.877h-10.136l25.791-75.914h11.83l25.906,75.914h-10.479l-8.111-23.877H449.776z
	 M474.669,84.499l-7.434-21.853c-1.686-4.956-2.816-9.463-3.943-13.855h-0.224c-1.123,4.507-2.364,9.124-3.825,13.741l-7.438,21.967
	H474.669z"/>
<path fill="#046CB6" d="M505.057,61.52l7.205,27.706c1.58,6.083,3.041,11.716,4.058,17.345h0.339
	c1.237-5.515,3.041-11.372,4.846-17.345L530.4,61.52h8.335l8.446,27.256c2.028,6.532,3.604,12.279,4.846,17.794h0.334
	c0.903-5.515,2.368-11.262,4.165-17.684l7.771-27.367h9.802l-17.573,54.517h-9.005l-8.341-26.02
	c-1.91-6.083-3.49-11.491-4.837-17.908h-0.229c-1.352,6.531-3.037,12.161-4.955,18.019l-8.785,25.909h-9.01L494.921,61.52H505.057z"
	/>
<path fill="#046CB6" d="M619.239,102.97c0,4.728,0.225,9.349,0.902,13.064h-9.013l-0.784-6.871h-0.339
	c-3.042,4.283-8.904,8.112-16.676,8.112c-11.034,0-16.668-7.773-16.668-15.656c0-13.182,11.716-20.386,32.776-20.275v-1.128
	c0-4.502-1.236-12.613-12.385-12.613c-5.07,0-10.366,1.58-14.198,4.058l-2.249-6.54c4.506-2.927,11.038-4.837,17.907-4.837
	c16.668,0,20.726,11.377,20.726,22.297V102.97z M609.667,88.213c-10.813-0.224-23.093,1.694-23.093,12.279
	c0,6.422,4.281,9.459,9.352,9.459c7.096,0,11.598-4.502,13.178-9.124c0.335-1.013,0.563-2.139,0.563-3.146V88.213z"/>
<path fill="#046CB6" d="M635.318,61.52l11.941,32.212c1.236,3.604,2.588,7.887,3.489,11.152h0.229
	c1.008-3.266,2.135-7.434,3.489-11.377l10.814-31.988h10.475l-14.872,38.859c-7.095,18.695-11.939,26.778-18.695,32.636
	c-4.847,4.278-9.688,5.968-12.161,6.417l-2.482-8.336c2.482-0.788,5.748-2.363,8.674-4.842c2.703-2.144,6.083-5.973,8.337-11.038
	c0.444-1.016,0.783-1.805,0.783-2.367c0-0.563-0.221-1.347-0.673-2.588L624.504,61.52H635.318z"/>
<path fill="#FFFFFF" d="M48.086,8.222l-29.09,36.901l-0.162,47.178l26.872-3.143c0,0,5.095-0.835,5.435,3.981
	c0.377,5.4-4.418,5.367-4.418,5.367l-27.888,3.761l-0.059,10.081l59.758,10.784l-0.055-78.01L48.086,8.222z M61.285,76.776
	C58.299,80.674,54,83.304,49.09,83.558c-0.263,0.018-0.525,0.022-0.788,0.022c-4.952,0-9.462-2.44-12.732-6.253
	c-3.279-3.825-5.405-9.051-5.714-14.875c-0.021-0.483-0.034-0.966-0.034-1.44c0-5.667,1.767-10.873,4.752-14.774
	c2.991-3.901,7.29-6.527,12.199-6.785c0.259-0.009,0.529-0.021,0.784-0.021c4.956,0,9.467,2.439,12.737,6.256
	c3.283,3.816,5.4,9.047,5.709,14.871c0.025,0.487,0.042,0.966,0.042,1.444C66.046,67.67,64.284,72.871,61.285,76.776"/>
<polygon fill="#FFFFFF" points="104.481,52.976 90.482,53.633 90.384,72.715 104.515,71.605 "/>
<polygon fill="#FFFFFF" points="90.427,78.683 90.372,97.828 104.6,96.465 104.498,77.586 "/>
<path fill="#FFFFFF" d="M57.541,48.05c-2.728-3.168-6.248-4.994-9.984-4.994c-0.199,0-0.398,0.004-0.597,0.017
	c-3.71,0.199-7.027,2.151-9.509,5.367c-2.461,3.21-4.011,7.654-4.011,12.571c0,0.411,0.017,0.826,0.038,1.25
	c0.263,5.065,2.122,9.538,4.841,12.703c2.728,3.164,6.252,4.993,9.984,4.993c0.199,0,0.402-0.008,0.602-0.021
	c3.71-0.198,7.027-2.155,9.505-5.362c2.465-3.211,4.011-7.658,4.011-12.572c0-0.415-0.013-0.826-0.034-1.249
	C62.128,55.691,60.269,51.21,57.541,48.05 M37.642,62.155c-0.39-7.48,3.579-13.775,8.882-14.147
	c-3.122,2.075-5.167,7.552-4.833,13.868c0.33,6.396,2.99,11.677,6.375,13.355l0.004,0.076
	C42.707,75.582,38.048,69.699,37.642,62.155"/>
<polygon fill="#FFFFFF" points="110.271,52.688 110.275,71.229 121.953,70.491 121.928,52.32 "/>
<polygon fill="#FFFFFF" points="110.271,95.892 121.924,94.786 121.924,76.357 110.271,77.2 "/>
<path fill="#046CB6" d="M103.575,0H38.887L0.71,45.064h13.457v47.978L3.908,94.376c0,0-4.943,0.923-3.711,6.181
	c1.029,3.295,4.99,3.142,4.99,3.142l8.979-1.121v13.295l64.01,11.577l50.884-11.475l-0.089-70.83h14.974L103.575,0z M90.482,53.633
	l14.003-0.657l0.034,18.629l-14.13,1.109L90.482,53.633z M18.771,112.349l0.063-10.085l27.884-3.757c0,0,4.803,0.033,4.418-5.363
	c-0.331-4.82-5.431-3.981-5.431-3.981l-26.872,3.134L19,45.119L48.09,8.222l30.392,36.897l0.047,78.018L18.771,112.349z
	 M90.376,97.828l0.051-19.146l14.075-1.097l0.093,18.879L90.376,97.828z M121.924,94.786l-11.648,1.105V77.205l11.648-0.848V94.786z
	 M110.28,71.224l-0.004-18.535l11.652-0.364l0.025,18.163L110.28,71.224z"/>
<path fill="#046CB6" d="M60.294,45.687c-3.274-3.817-7.781-6.252-12.737-6.252c-0.258,0-0.521,0.004-0.784,0.018
	c-4.909,0.258-9.208,2.88-12.194,6.785c-2.991,3.905-4.757,9.107-4.757,14.774c0,0.475,0.013,0.958,0.034,1.44
	c0.31,5.824,2.436,11.05,5.714,14.875c3.27,3.812,7.781,6.256,12.736,6.256c0.258,0,0.521-0.008,0.784-0.025
	c4.909-0.254,9.208-2.884,12.195-6.781c2.999-3.905,4.761-9.102,4.761-14.774c0-0.474-0.012-0.957-0.042-1.444
	C65.694,54.73,63.577,49.503,60.294,45.687 M58.409,74.574c-2.474,3.215-5.795,5.164-9.505,5.362
	c-0.2,0.013-0.398,0.021-0.598,0.021c-3.735,0-7.26-1.829-9.992-4.993c-2.72-3.165-4.575-7.637-4.833-12.703
	c-0.026-0.424-0.042-0.839-0.042-1.25c0-4.917,1.55-9.361,4.015-12.571c2.474-3.215,5.799-5.167,9.505-5.367
	c0.199-0.008,0.398-0.017,0.597-0.017c3.736,0,7.26,1.826,9.988,4.994c2.728,3.16,4.583,7.641,4.837,12.703
	c0.03,0.423,0.042,0.834,0.042,1.249C62.424,66.916,60.874,71.363,58.409,74.574"/>
<path fill="#046CB6" d="M41.686,61.879c-0.326-6.319,1.716-11.796,4.837-13.872c-5.303,0.373-9.272,6.667-8.882,14.147
	c0.402,7.539,5.07,13.427,10.428,13.151l-0.004-0.076C44.686,73.553,42.021,68.271,41.686,61.879"/>
<path fill="#046CB6" d="M691.166,61.842c4.885,0,8.671,3.791,8.671,8.514c0,4.833-3.786,8.568-8.717,8.568
	c-4.88,0-8.772-3.735-8.772-8.568c0-4.723,3.893-8.514,8.772-8.514H691.166z M691.065,63.557c-3.736,0-6.537,3.067-6.537,6.798
	c0,3.79,2.801,6.803,6.638,6.803c3.741,0.051,6.494-3.013,6.494-6.803c0-3.731-2.753-6.798-6.54-6.798H691.065z M689.768,74.773
	h-1.97V66.31c0.775-0.157,1.864-0.313,3.267-0.313c1.613,0,2.337,0.263,2.955,0.677c0.475,0.364,0.835,1.038,0.835,1.813
	c0,0.991-0.728,1.72-1.767,2.029v0.102c0.831,0.263,1.301,0.937,1.564,2.075c0.254,1.301,0.41,1.816,0.618,2.08h-2.131
	c-0.259-0.313-0.415-1.038-0.674-2.025c-0.152-0.935-0.673-1.351-1.763-1.351h-0.936V74.773z M689.819,70h0.937
	c1.089,0,1.97-0.368,1.97-1.245c0-0.784-0.567-1.305-1.817-1.305c-0.517,0-0.881,0.055-1.089,0.105V70z"/>
</svg>
